<svg width="23" height="28" viewBox="0 0 23 28" fill="none" xmlns="http://www.w3.org/2000/svg">
<path d="M8.75 24.625H13.75C13.75 26 12.625 27.125 11.25 27.125C9.875 27.125 8.75 26 8.75 24.625ZM22.5 22.125V23.375H0V22.125L2.5 19.625V12.125C2.5 8.25 5 4.875 8.75 3.75V3.375C8.75 2 9.875 0.875 11.25 0.875C12.625 0.875 13.75 2 13.75 3.375V3.75C17.5 4.875 20 8.25 20 12.125V19.625L22.5 22.125ZM17.5 12.125C17.5 8.625 14.75 5.875 11.25 5.875C7.75 5.875 5 8.625 5 12.125V20.875H17.5V12.125Z" fill="#111111"/>
</svg>
